%TF.GenerationSoftware,KiCad,Pcbnew,(5.1.7)-1*%
%TF.CreationDate,2020-10-24T11:29:13-04:00*%
%TF.ProjectId,example-keyboard,6578616d-706c-4652-9d6b-6579626f6172,rev?*%
%TF.SameCoordinates,Original*%
%TF.FileFunction,Legend,Bot*%
%TF.FilePolarity,Positive*%
%FSLAX46Y46*%
G04 Gerber Fmt 4.6, Leading zero omitted, Abs format (unit mm)*
G04 Created by KiCad (PCBNEW (5.1.7)-1) date 2020-10-24 11:29:13*
%MOMM*%
%LPD*%
G01*
G04 APERTURE LIST*
%ADD10C,0.381000*%
%ADD11C,0.150000*%
G04 APERTURE END LIST*
D10*
%TO.C,U1*%
X130810000Y-99060000D02*
X133350000Y-99060000D01*
X115570000Y-101600000D02*
X133350000Y-101600000D01*
X133350000Y-101600000D02*
X133350000Y-68580000D01*
X133350000Y-68580000D02*
X115570000Y-68580000D01*
X115570000Y-68580000D02*
X115570000Y-101600000D01*
D11*
G36*
X118615365Y-93170970D02*
G01*
X118615365Y-93070970D01*
X118115365Y-93070970D01*
X118115365Y-93170970D01*
X118615365Y-93170970D01*
G37*
X118615365Y-93170970D02*
X118615365Y-93070970D01*
X118115365Y-93070970D01*
X118115365Y-93170970D01*
X118615365Y-93170970D01*
G36*
X118615365Y-93170970D02*
G01*
X118615365Y-92870970D01*
X118515365Y-92870970D01*
X118515365Y-93170970D01*
X118615365Y-93170970D01*
G37*
X118615365Y-93170970D02*
X118615365Y-92870970D01*
X118515365Y-92870970D01*
X118515365Y-93170970D01*
X118615365Y-93170970D01*
G36*
X118615365Y-92570970D02*
G01*
X118615365Y-92370970D01*
X118515365Y-92370970D01*
X118515365Y-92570970D01*
X118615365Y-92570970D01*
G37*
X118615365Y-92570970D02*
X118615365Y-92370970D01*
X118515365Y-92370970D01*
X118515365Y-92570970D01*
X118615365Y-92570970D01*
G36*
X118215365Y-93170970D02*
G01*
X118215365Y-92370970D01*
X118115365Y-92370970D01*
X118115365Y-93170970D01*
X118215365Y-93170970D01*
G37*
X118215365Y-93170970D02*
X118215365Y-92370970D01*
X118115365Y-92370970D01*
X118115365Y-93170970D01*
X118215365Y-93170970D01*
G36*
X118415365Y-92770970D02*
G01*
X118415365Y-92670970D01*
X118315365Y-92670970D01*
X118315365Y-92770970D01*
X118415365Y-92770970D01*
G37*
X118415365Y-92770970D02*
X118415365Y-92670970D01*
X118315365Y-92670970D01*
X118315365Y-92770970D01*
X118415365Y-92770970D01*
D10*
X130810000Y-99060000D02*
X130810000Y-96520000D01*
X130810000Y-96520000D02*
X133350000Y-96520000D01*
D11*
X127590476Y-71781904D02*
X127590476Y-70981904D01*
X127400000Y-70981904D01*
X127285714Y-71020000D01*
X127209523Y-71096190D01*
X127171428Y-71172380D01*
X127133333Y-71324761D01*
X127133333Y-71439047D01*
X127171428Y-71591428D01*
X127209523Y-71667619D01*
X127285714Y-71743809D01*
X127400000Y-71781904D01*
X127590476Y-71781904D01*
X126409523Y-70981904D02*
X126790476Y-70981904D01*
X126828571Y-71362857D01*
X126790476Y-71324761D01*
X126714285Y-71286666D01*
X126523809Y-71286666D01*
X126447619Y-71324761D01*
X126409523Y-71362857D01*
X126371428Y-71439047D01*
X126371428Y-71629523D01*
X126409523Y-71705714D01*
X126447619Y-71743809D01*
X126523809Y-71781904D01*
X126714285Y-71781904D01*
X126790476Y-71743809D01*
X126828571Y-71705714D01*
X122186666Y-71362857D02*
X122453333Y-71362857D01*
X122453333Y-71781904D02*
X122453333Y-70981904D01*
X122072380Y-70981904D01*
X121348571Y-71781904D02*
X121805714Y-71781904D01*
X121577142Y-71781904D02*
X121577142Y-70981904D01*
X121653333Y-71096190D01*
X121729523Y-71172380D01*
X121805714Y-71210476D01*
X124593333Y-71705714D02*
X124631428Y-71743809D01*
X124745714Y-71781904D01*
X124821904Y-71781904D01*
X124936190Y-71743809D01*
X125012380Y-71667619D01*
X125050476Y-71591428D01*
X125088571Y-71439047D01*
X125088571Y-71324761D01*
X125050476Y-71172380D01*
X125012380Y-71096190D01*
X124936190Y-71020000D01*
X124821904Y-70981904D01*
X124745714Y-70981904D01*
X124631428Y-71020000D01*
X124593333Y-71058095D01*
X124326666Y-70981904D02*
X123793333Y-70981904D01*
X124136190Y-71781904D01*
X117895008Y-71355702D02*
X117942148Y-71261421D01*
X117942148Y-71214280D01*
X117918578Y-71143570D01*
X117847867Y-71072859D01*
X117777157Y-71049289D01*
X117730016Y-71049289D01*
X117659306Y-71072859D01*
X117470744Y-71261421D01*
X117965719Y-71756396D01*
X118130710Y-71591404D01*
X118154280Y-71520693D01*
X118154280Y-71473553D01*
X118130710Y-71402842D01*
X118083570Y-71355702D01*
X118012859Y-71332132D01*
X117965719Y-71332132D01*
X117895008Y-71355702D01*
X117730016Y-71520693D01*
X118672825Y-71049289D02*
X118578544Y-71143570D01*
X118507834Y-71167140D01*
X118460693Y-71167140D01*
X118342842Y-71143570D01*
X118224991Y-71072859D01*
X118036429Y-70884297D01*
X118012859Y-70813587D01*
X118012859Y-70766446D01*
X118036429Y-70695735D01*
X118130710Y-70601455D01*
X118201421Y-70577884D01*
X118248561Y-70577884D01*
X118319272Y-70601455D01*
X118437123Y-70719306D01*
X118460693Y-70790016D01*
X118460693Y-70837157D01*
X118437123Y-70907867D01*
X118342842Y-71002148D01*
X118272132Y-71025719D01*
X118224991Y-71025719D01*
X118154280Y-71002148D01*
X120193333Y-71170000D02*
X120426666Y-71170000D01*
X120426666Y-71536666D02*
X120426666Y-70836666D01*
X120093333Y-70836666D01*
X119693333Y-70836666D02*
X119626666Y-70836666D01*
X119560000Y-70870000D01*
X119526666Y-70903333D01*
X119493333Y-70970000D01*
X119460000Y-71103333D01*
X119460000Y-71270000D01*
X119493333Y-71403333D01*
X119526666Y-71470000D01*
X119560000Y-71503333D01*
X119626666Y-71536666D01*
X119693333Y-71536666D01*
X119760000Y-71503333D01*
X119793333Y-71470000D01*
X119826666Y-71403333D01*
X119860000Y-71270000D01*
X119860000Y-71103333D01*
X119826666Y-70970000D01*
X119793333Y-70903333D01*
X119760000Y-70870000D01*
X119693333Y-70836666D01*
X129243333Y-71170000D02*
X129143333Y-71203333D01*
X129110000Y-71236666D01*
X129076666Y-71303333D01*
X129076666Y-71403333D01*
X129110000Y-71470000D01*
X129143333Y-71503333D01*
X129210000Y-71536666D01*
X129476666Y-71536666D01*
X129476666Y-70836666D01*
X129243333Y-70836666D01*
X129176666Y-70870000D01*
X129143333Y-70903333D01*
X129110000Y-70970000D01*
X129110000Y-71036666D01*
X129143333Y-71103333D01*
X129176666Y-71136666D01*
X129243333Y-71170000D01*
X129476666Y-71170000D01*
X128843333Y-70836666D02*
X128376666Y-70836666D01*
X128676666Y-71536666D01*
X119953333Y-93053809D02*
X119839047Y-93091904D01*
X119648571Y-93091904D01*
X119572380Y-93053809D01*
X119534285Y-93015714D01*
X119496190Y-92939523D01*
X119496190Y-92863333D01*
X119534285Y-92787142D01*
X119572380Y-92749047D01*
X119648571Y-92710952D01*
X119800952Y-92672857D01*
X119877142Y-92634761D01*
X119915238Y-92596666D01*
X119953333Y-92520476D01*
X119953333Y-92444285D01*
X119915238Y-92368095D01*
X119877142Y-92330000D01*
X119800952Y-92291904D01*
X119610476Y-92291904D01*
X119496190Y-92330000D01*
X119267619Y-92291904D02*
X118810476Y-92291904D01*
X119039047Y-93091904D02*
X119039047Y-92291904D01*
X130222348Y-97351904D02*
X129765205Y-97351904D01*
X129993776Y-98151904D02*
X129993776Y-97351904D01*
X129574729Y-97351904D02*
X129041395Y-98151904D01*
X129041395Y-97351904D02*
X129574729Y-98151904D01*
X128584252Y-97351904D02*
X128508062Y-97351904D01*
X128431872Y-97390000D01*
X128393776Y-97428095D01*
X128355681Y-97504285D01*
X128317586Y-97656666D01*
X128317586Y-97847142D01*
X128355681Y-97999523D01*
X128393776Y-98075714D01*
X128431872Y-98113809D01*
X128508062Y-98151904D01*
X128584252Y-98151904D01*
X128660443Y-98113809D01*
X128698538Y-98075714D01*
X128736633Y-97999523D01*
X128774729Y-97847142D01*
X128774729Y-97656666D01*
X128736633Y-97504285D01*
X128698538Y-97428095D01*
X128660443Y-97390000D01*
X128584252Y-97351904D01*
X127403300Y-97313809D02*
X128089014Y-98342380D01*
X127136633Y-98151904D02*
X127136633Y-97351904D01*
X126946157Y-97351904D01*
X126831872Y-97390000D01*
X126755681Y-97466190D01*
X126717586Y-97542380D01*
X126679491Y-97694761D01*
X126679491Y-97809047D01*
X126717586Y-97961428D01*
X126755681Y-98037619D01*
X126831872Y-98113809D01*
X126946157Y-98151904D01*
X127136633Y-98151904D01*
X126412824Y-97351904D02*
X125917586Y-97351904D01*
X126184252Y-97656666D01*
X126069967Y-97656666D01*
X125993776Y-97694761D01*
X125955681Y-97732857D01*
X125917586Y-97809047D01*
X125917586Y-97999523D01*
X125955681Y-98075714D01*
X125993776Y-98113809D01*
X126069967Y-98151904D01*
X126298538Y-98151904D01*
X126374729Y-98113809D01*
X126412824Y-98075714D01*
X119322809Y-72332857D02*
X119208523Y-72370952D01*
X119170428Y-72409047D01*
X119132333Y-72485238D01*
X119132333Y-72599523D01*
X119170428Y-72675714D01*
X119208523Y-72713809D01*
X119284714Y-72751904D01*
X119589476Y-72751904D01*
X119589476Y-71951904D01*
X119322809Y-71951904D01*
X119246619Y-71990000D01*
X119208523Y-72028095D01*
X119170428Y-72104285D01*
X119170428Y-72180476D01*
X119208523Y-72256666D01*
X119246619Y-72294761D01*
X119322809Y-72332857D01*
X119589476Y-72332857D01*
X118827571Y-72028095D02*
X118789476Y-71990000D01*
X118713285Y-71951904D01*
X118522809Y-71951904D01*
X118446619Y-71990000D01*
X118408523Y-72028095D01*
X118370428Y-72104285D01*
X118370428Y-72180476D01*
X118408523Y-72294761D01*
X118865666Y-72751904D01*
X118370428Y-72751904D01*
X119265666Y-79952857D02*
X119532333Y-79952857D01*
X119532333Y-80371904D02*
X119532333Y-79571904D01*
X119151380Y-79571904D01*
X118922809Y-79571904D02*
X118389476Y-79571904D01*
X118732333Y-80371904D01*
X119265666Y-82492857D02*
X119532333Y-82492857D01*
X119532333Y-82911904D02*
X119532333Y-82111904D01*
X119151380Y-82111904D01*
X118503761Y-82111904D02*
X118656142Y-82111904D01*
X118732333Y-82150000D01*
X118770428Y-82188095D01*
X118846619Y-82302380D01*
X118884714Y-82454761D01*
X118884714Y-82759523D01*
X118846619Y-82835714D01*
X118808523Y-82873809D01*
X118732333Y-82911904D01*
X118579952Y-82911904D01*
X118503761Y-82873809D01*
X118465666Y-82835714D01*
X118427571Y-82759523D01*
X118427571Y-82569047D01*
X118465666Y-82492857D01*
X118503761Y-82454761D01*
X118579952Y-82416666D01*
X118732333Y-82416666D01*
X118808523Y-82454761D01*
X118846619Y-82492857D01*
X118884714Y-82569047D01*
X119265666Y-85032857D02*
X119532333Y-85032857D01*
X119532333Y-85451904D02*
X119532333Y-84651904D01*
X119151380Y-84651904D01*
X118465666Y-84651904D02*
X118846619Y-84651904D01*
X118884714Y-85032857D01*
X118846619Y-84994761D01*
X118770428Y-84956666D01*
X118579952Y-84956666D01*
X118503761Y-84994761D01*
X118465666Y-85032857D01*
X118427571Y-85109047D01*
X118427571Y-85299523D01*
X118465666Y-85375714D01*
X118503761Y-85413809D01*
X118579952Y-85451904D01*
X118770428Y-85451904D01*
X118846619Y-85413809D01*
X118884714Y-85375714D01*
X119322809Y-97732857D02*
X119208523Y-97770952D01*
X119170428Y-97809047D01*
X119132333Y-97885238D01*
X119132333Y-97999523D01*
X119170428Y-98075714D01*
X119208523Y-98113809D01*
X119284714Y-98151904D01*
X119589476Y-98151904D01*
X119589476Y-97351904D01*
X119322809Y-97351904D01*
X119246619Y-97390000D01*
X119208523Y-97428095D01*
X119170428Y-97504285D01*
X119170428Y-97580476D01*
X119208523Y-97656666D01*
X119246619Y-97694761D01*
X119322809Y-97732857D01*
X119589476Y-97732857D01*
X118637095Y-97351904D02*
X118560904Y-97351904D01*
X118484714Y-97390000D01*
X118446619Y-97428095D01*
X118408523Y-97504285D01*
X118370428Y-97656666D01*
X118370428Y-97847142D01*
X118408523Y-97999523D01*
X118446619Y-98075714D01*
X118484714Y-98113809D01*
X118560904Y-98151904D01*
X118637095Y-98151904D01*
X118713285Y-98113809D01*
X118751380Y-98075714D01*
X118789476Y-97999523D01*
X118827571Y-97847142D01*
X118827571Y-97656666D01*
X118789476Y-97504285D01*
X118751380Y-97428095D01*
X118713285Y-97390000D01*
X118637095Y-97351904D01*
X119608523Y-94850000D02*
X119684714Y-94811904D01*
X119799000Y-94811904D01*
X119913285Y-94850000D01*
X119989476Y-94926190D01*
X120027571Y-95002380D01*
X120065666Y-95154761D01*
X120065666Y-95269047D01*
X120027571Y-95421428D01*
X119989476Y-95497619D01*
X119913285Y-95573809D01*
X119799000Y-95611904D01*
X119722809Y-95611904D01*
X119608523Y-95573809D01*
X119570428Y-95535714D01*
X119570428Y-95269047D01*
X119722809Y-95269047D01*
X119227571Y-95611904D02*
X119227571Y-94811904D01*
X118770428Y-95611904D01*
X118770428Y-94811904D01*
X118389476Y-95611904D02*
X118389476Y-94811904D01*
X118199000Y-94811904D01*
X118084714Y-94850000D01*
X118008523Y-94926190D01*
X117970428Y-95002380D01*
X117932333Y-95154761D01*
X117932333Y-95269047D01*
X117970428Y-95421428D01*
X118008523Y-95497619D01*
X118084714Y-95573809D01*
X118199000Y-95611904D01*
X118389476Y-95611904D01*
X120065666Y-89731904D02*
X119799000Y-90531904D01*
X119532333Y-89731904D01*
X118808523Y-90455714D02*
X118846619Y-90493809D01*
X118960904Y-90531904D01*
X119037095Y-90531904D01*
X119151380Y-90493809D01*
X119227571Y-90417619D01*
X119265666Y-90341428D01*
X119303761Y-90189047D01*
X119303761Y-90074761D01*
X119265666Y-89922380D01*
X119227571Y-89846190D01*
X119151380Y-89770000D01*
X119037095Y-89731904D01*
X118960904Y-89731904D01*
X118846619Y-89770000D01*
X118808523Y-89808095D01*
X118008523Y-90455714D02*
X118046619Y-90493809D01*
X118160904Y-90531904D01*
X118237095Y-90531904D01*
X118351380Y-90493809D01*
X118427571Y-90417619D01*
X118465666Y-90341428D01*
X118503761Y-90189047D01*
X118503761Y-90074761D01*
X118465666Y-89922380D01*
X118427571Y-89846190D01*
X118351380Y-89770000D01*
X118237095Y-89731904D01*
X118160904Y-89731904D01*
X118046619Y-89770000D01*
X118008523Y-89808095D01*
X119265666Y-87572857D02*
X119532333Y-87572857D01*
X119532333Y-87991904D02*
X119532333Y-87191904D01*
X119151380Y-87191904D01*
X118503761Y-87458571D02*
X118503761Y-87991904D01*
X118694238Y-87153809D02*
X118884714Y-87725238D01*
X118389476Y-87725238D01*
X119322809Y-77412857D02*
X119208523Y-77450952D01*
X119170428Y-77489047D01*
X119132333Y-77565238D01*
X119132333Y-77679523D01*
X119170428Y-77755714D01*
X119208523Y-77793809D01*
X119284714Y-77831904D01*
X119589476Y-77831904D01*
X119589476Y-77031904D01*
X119322809Y-77031904D01*
X119246619Y-77070000D01*
X119208523Y-77108095D01*
X119170428Y-77184285D01*
X119170428Y-77260476D01*
X119208523Y-77336666D01*
X119246619Y-77374761D01*
X119322809Y-77412857D01*
X119589476Y-77412857D01*
X118370428Y-77831904D02*
X118827571Y-77831904D01*
X118599000Y-77831904D02*
X118599000Y-77031904D01*
X118675190Y-77146190D01*
X118751380Y-77222380D01*
X118827571Y-77260476D01*
X119322809Y-74872857D02*
X119208523Y-74910952D01*
X119170428Y-74949047D01*
X119132333Y-75025238D01*
X119132333Y-75139523D01*
X119170428Y-75215714D01*
X119208523Y-75253809D01*
X119284714Y-75291904D01*
X119589476Y-75291904D01*
X119589476Y-74491904D01*
X119322809Y-74491904D01*
X119246619Y-74530000D01*
X119208523Y-74568095D01*
X119170428Y-74644285D01*
X119170428Y-74720476D01*
X119208523Y-74796666D01*
X119246619Y-74834761D01*
X119322809Y-74872857D01*
X119589476Y-74872857D01*
X118865666Y-74491904D02*
X118370428Y-74491904D01*
X118637095Y-74796666D01*
X118522809Y-74796666D01*
X118446619Y-74834761D01*
X118408523Y-74872857D01*
X118370428Y-74949047D01*
X118370428Y-75139523D01*
X118408523Y-75215714D01*
X118446619Y-75253809D01*
X118522809Y-75291904D01*
X118751380Y-75291904D01*
X118827571Y-75253809D01*
X118865666Y-75215714D01*
X131095702Y-71284991D02*
X131001421Y-71237851D01*
X130954280Y-71237851D01*
X130883570Y-71261421D01*
X130812859Y-71332132D01*
X130789289Y-71402842D01*
X130789289Y-71449983D01*
X130812859Y-71520693D01*
X131001421Y-71709255D01*
X131496396Y-71214280D01*
X131331404Y-71049289D01*
X131260693Y-71025719D01*
X131213553Y-71025719D01*
X131142842Y-71049289D01*
X131095702Y-71096429D01*
X131072132Y-71167140D01*
X131072132Y-71214280D01*
X131095702Y-71284991D01*
X131260693Y-71449983D01*
X130765719Y-70483603D02*
X131001421Y-70719306D01*
X130789289Y-70978578D01*
X130789289Y-70931438D01*
X130765719Y-70860727D01*
X130647867Y-70742876D01*
X130577157Y-70719306D01*
X130530016Y-70719306D01*
X130459306Y-70742876D01*
X130341455Y-70860727D01*
X130317884Y-70931438D01*
X130317884Y-70978578D01*
X130341455Y-71049289D01*
X130459306Y-71167140D01*
X130530016Y-71190710D01*
X130577157Y-71190710D01*
X130244809Y-72332857D02*
X130130523Y-72370952D01*
X130092428Y-72409047D01*
X130054333Y-72485238D01*
X130054333Y-72599523D01*
X130092428Y-72675714D01*
X130130523Y-72713809D01*
X130206714Y-72751904D01*
X130511476Y-72751904D01*
X130511476Y-71951904D01*
X130244809Y-71951904D01*
X130168619Y-71990000D01*
X130130523Y-72028095D01*
X130092428Y-72104285D01*
X130092428Y-72180476D01*
X130130523Y-72256666D01*
X130168619Y-72294761D01*
X130244809Y-72332857D01*
X130511476Y-72332857D01*
X129368619Y-72218571D02*
X129368619Y-72751904D01*
X129559095Y-71913809D02*
X129749571Y-72485238D01*
X129254333Y-72485238D01*
X130473380Y-74872857D02*
X130206714Y-74872857D01*
X130092428Y-75291904D02*
X130473380Y-75291904D01*
X130473380Y-74491904D01*
X130092428Y-74491904D01*
X129406714Y-74491904D02*
X129559095Y-74491904D01*
X129635285Y-74530000D01*
X129673380Y-74568095D01*
X129749571Y-74682380D01*
X129787666Y-74834761D01*
X129787666Y-75139523D01*
X129749571Y-75215714D01*
X129711476Y-75253809D01*
X129635285Y-75291904D01*
X129482904Y-75291904D01*
X129406714Y-75253809D01*
X129368619Y-75215714D01*
X129330523Y-75139523D01*
X129330523Y-74949047D01*
X129368619Y-74872857D01*
X129406714Y-74834761D01*
X129482904Y-74796666D01*
X129635285Y-74796666D01*
X129711476Y-74834761D01*
X129749571Y-74872857D01*
X129787666Y-74949047D01*
X130511476Y-77831904D02*
X130511476Y-77031904D01*
X130321000Y-77031904D01*
X130206714Y-77070000D01*
X130130523Y-77146190D01*
X130092428Y-77222380D01*
X130054333Y-77374761D01*
X130054333Y-77489047D01*
X130092428Y-77641428D01*
X130130523Y-77717619D01*
X130206714Y-77793809D01*
X130321000Y-77831904D01*
X130511476Y-77831904D01*
X129787666Y-77031904D02*
X129254333Y-77031904D01*
X129597190Y-77831904D01*
X130054333Y-80295714D02*
X130092428Y-80333809D01*
X130206714Y-80371904D01*
X130282904Y-80371904D01*
X130397190Y-80333809D01*
X130473380Y-80257619D01*
X130511476Y-80181428D01*
X130549571Y-80029047D01*
X130549571Y-79914761D01*
X130511476Y-79762380D01*
X130473380Y-79686190D01*
X130397190Y-79610000D01*
X130282904Y-79571904D01*
X130206714Y-79571904D01*
X130092428Y-79610000D01*
X130054333Y-79648095D01*
X129368619Y-79571904D02*
X129521000Y-79571904D01*
X129597190Y-79610000D01*
X129635285Y-79648095D01*
X129711476Y-79762380D01*
X129749571Y-79914761D01*
X129749571Y-80219523D01*
X129711476Y-80295714D01*
X129673380Y-80333809D01*
X129597190Y-80371904D01*
X129444809Y-80371904D01*
X129368619Y-80333809D01*
X129330523Y-80295714D01*
X129292428Y-80219523D01*
X129292428Y-80029047D01*
X129330523Y-79952857D01*
X129368619Y-79914761D01*
X129444809Y-79876666D01*
X129597190Y-79876666D01*
X129673380Y-79914761D01*
X129711476Y-79952857D01*
X129749571Y-80029047D01*
X130511476Y-82911904D02*
X130511476Y-82111904D01*
X130321000Y-82111904D01*
X130206714Y-82150000D01*
X130130523Y-82226190D01*
X130092428Y-82302380D01*
X130054333Y-82454761D01*
X130054333Y-82569047D01*
X130092428Y-82721428D01*
X130130523Y-82797619D01*
X130206714Y-82873809D01*
X130321000Y-82911904D01*
X130511476Y-82911904D01*
X129368619Y-82378571D02*
X129368619Y-82911904D01*
X129559095Y-82073809D02*
X129749571Y-82645238D01*
X129254333Y-82645238D01*
X130530523Y-92310000D02*
X130606714Y-92271904D01*
X130721000Y-92271904D01*
X130835285Y-92310000D01*
X130911476Y-92386190D01*
X130949571Y-92462380D01*
X130987666Y-92614761D01*
X130987666Y-92729047D01*
X130949571Y-92881428D01*
X130911476Y-92957619D01*
X130835285Y-93033809D01*
X130721000Y-93071904D01*
X130644809Y-93071904D01*
X130530523Y-93033809D01*
X130492428Y-92995714D01*
X130492428Y-92729047D01*
X130644809Y-92729047D01*
X130149571Y-93071904D02*
X130149571Y-92271904D01*
X129692428Y-93071904D01*
X129692428Y-92271904D01*
X129311476Y-93071904D02*
X129311476Y-92271904D01*
X129121000Y-92271904D01*
X129006714Y-92310000D01*
X128930523Y-92386190D01*
X128892428Y-92462380D01*
X128854333Y-92614761D01*
X128854333Y-92729047D01*
X128892428Y-92881428D01*
X128930523Y-92957619D01*
X129006714Y-93033809D01*
X129121000Y-93071904D01*
X129311476Y-93071904D01*
X130530523Y-89770000D02*
X130606714Y-89731904D01*
X130721000Y-89731904D01*
X130835285Y-89770000D01*
X130911476Y-89846190D01*
X130949571Y-89922380D01*
X130987666Y-90074761D01*
X130987666Y-90189047D01*
X130949571Y-90341428D01*
X130911476Y-90417619D01*
X130835285Y-90493809D01*
X130721000Y-90531904D01*
X130644809Y-90531904D01*
X130530523Y-90493809D01*
X130492428Y-90455714D01*
X130492428Y-90189047D01*
X130644809Y-90189047D01*
X130149571Y-90531904D02*
X130149571Y-89731904D01*
X129692428Y-90531904D01*
X129692428Y-89731904D01*
X129311476Y-90531904D02*
X129311476Y-89731904D01*
X129121000Y-89731904D01*
X129006714Y-89770000D01*
X128930523Y-89846190D01*
X128892428Y-89922380D01*
X128854333Y-90074761D01*
X128854333Y-90189047D01*
X128892428Y-90341428D01*
X128930523Y-90417619D01*
X129006714Y-90493809D01*
X129121000Y-90531904D01*
X129311476Y-90531904D01*
X130511476Y-87991904D02*
X130511476Y-87191904D01*
X130321000Y-87191904D01*
X130206714Y-87230000D01*
X130130523Y-87306190D01*
X130092428Y-87382380D01*
X130054333Y-87534761D01*
X130054333Y-87649047D01*
X130092428Y-87801428D01*
X130130523Y-87877619D01*
X130206714Y-87953809D01*
X130321000Y-87991904D01*
X130511476Y-87991904D01*
X129292428Y-87991904D02*
X129749571Y-87991904D01*
X129521000Y-87991904D02*
X129521000Y-87191904D01*
X129597190Y-87306190D01*
X129673380Y-87382380D01*
X129749571Y-87420476D01*
X130511476Y-85451904D02*
X130511476Y-84651904D01*
X130321000Y-84651904D01*
X130206714Y-84690000D01*
X130130523Y-84766190D01*
X130092428Y-84842380D01*
X130054333Y-84994761D01*
X130054333Y-85109047D01*
X130092428Y-85261428D01*
X130130523Y-85337619D01*
X130206714Y-85413809D01*
X130321000Y-85451904D01*
X130511476Y-85451904D01*
X129559095Y-84651904D02*
X129482904Y-84651904D01*
X129406714Y-84690000D01*
X129368619Y-84728095D01*
X129330523Y-84804285D01*
X129292428Y-84956666D01*
X129292428Y-85147142D01*
X129330523Y-85299523D01*
X129368619Y-85375714D01*
X129406714Y-85413809D01*
X129482904Y-85451904D01*
X129559095Y-85451904D01*
X129635285Y-85413809D01*
X129673380Y-85375714D01*
X129711476Y-85299523D01*
X129749571Y-85147142D01*
X129749571Y-84956666D01*
X129711476Y-84804285D01*
X129673380Y-84728095D01*
X129635285Y-84690000D01*
X129559095Y-84651904D01*
X130511476Y-95611904D02*
X130511476Y-94811904D01*
X130321000Y-94811904D01*
X130206714Y-94850000D01*
X130130523Y-94926190D01*
X130092428Y-95002380D01*
X130054333Y-95154761D01*
X130054333Y-95269047D01*
X130092428Y-95421428D01*
X130130523Y-95497619D01*
X130206714Y-95573809D01*
X130321000Y-95611904D01*
X130511476Y-95611904D01*
X129749571Y-94888095D02*
X129711476Y-94850000D01*
X129635285Y-94811904D01*
X129444809Y-94811904D01*
X129368619Y-94850000D01*
X129330523Y-94888095D01*
X129292428Y-94964285D01*
X129292428Y-95040476D01*
X129330523Y-95154761D01*
X129787666Y-95611904D01*
X129292428Y-95611904D01*
%TD*%
M02*
