%TF.GenerationSoftware,KiCad,Pcbnew,(5.1.7)-1*%
%TF.CreationDate,2020-10-24T11:29:13-04:00*%
%TF.ProjectId,example-keyboard,6578616d-706c-4652-9d6b-6579626f6172,rev?*%
%TF.SameCoordinates,Original*%
%TF.FileFunction,Copper,L1,Top*%
%TF.FilePolarity,Positive*%
%FSLAX46Y46*%
G04 Gerber Fmt 4.6, Leading zero omitted, Abs format (unit mm)*
G04 Created by KiCad (PCBNEW (5.1.7)-1) date 2020-10-24 11:29:13*
%MOMM*%
%LPD*%
G01*
G04 APERTURE LIST*
%TA.AperFunction,ComponentPad*%
%ADD10C,1.752600*%
%TD*%
%TA.AperFunction,ComponentPad*%
%ADD11R,1.752600X1.752600*%
%TD*%
%TA.AperFunction,ComponentPad*%
%ADD12C,2.000000*%
%TD*%
%TA.AperFunction,ComponentPad*%
%ADD13C,2.200000*%
%TD*%
%TA.AperFunction,ComponentPad*%
%ADD14R,1.651000X1.651000*%
%TD*%
%TA.AperFunction,ComponentPad*%
%ADD15C,1.651000*%
%TD*%
G04 APERTURE END LIST*
D10*
%TO.P,U1,25*%
%TO.N,Net-(U1-Pad25)*%
X129540000Y-69850000D03*
%TO.P,U1,26*%
%TO.N,Net-(U1-Pad26)*%
X127000000Y-69850000D03*
%TO.P,U1,27*%
%TO.N,Net-(U1-Pad27)*%
X124460000Y-69850000D03*
%TO.P,U1,28*%
%TO.N,Net-(U1-Pad28)*%
X121920000Y-69850000D03*
%TO.P,U1,29*%
%TO.N,Net-(U1-Pad29)*%
X119380000Y-69850000D03*
%TO.P,U1,24*%
%TO.N,Net-(U1-Pad24)*%
X116840000Y-97790000D03*
%TO.P,U1,12*%
%TO.N,Net-(U1-Pad12)*%
X131851400Y-69850000D03*
%TO.P,U1,23*%
%TO.N,GND*%
X116840000Y-95250000D03*
%TO.P,U1,22*%
%TO.N,Net-(SW1-Pad1)*%
X116840000Y-92710000D03*
%TO.P,U1,21*%
%TO.N,Net-(U1-Pad21)*%
X116840000Y-90170000D03*
%TO.P,U1,20*%
%TO.N,COL1*%
X116840000Y-87630000D03*
%TO.P,U1,19*%
%TO.N,COL2*%
X116840000Y-85090000D03*
%TO.P,U1,18*%
%TO.N,ROW2*%
X116840000Y-82550000D03*
%TO.P,U1,17*%
%TO.N,ROW1*%
X116840000Y-80010000D03*
%TO.P,U1,16*%
%TO.N,Net-(U1-Pad16)*%
X116840000Y-77470000D03*
%TO.P,U1,15*%
%TO.N,Net-(U1-Pad15)*%
X116840000Y-74930000D03*
%TO.P,U1,14*%
%TO.N,Net-(U1-Pad14)*%
X116840000Y-72390000D03*
%TO.P,U1,13*%
%TO.N,Net-(U1-Pad13)*%
X116840000Y-69850000D03*
%TO.P,U1,11*%
%TO.N,Net-(U1-Pad11)*%
X132080000Y-72390000D03*
%TO.P,U1,10*%
%TO.N,Net-(U1-Pad10)*%
X132080000Y-74930000D03*
%TO.P,U1,9*%
%TO.N,Net-(U1-Pad9)*%
X132080000Y-77470000D03*
%TO.P,U1,8*%
%TO.N,Net-(U1-Pad8)*%
X132080000Y-80010000D03*
%TO.P,U1,7*%
%TO.N,Net-(U1-Pad7)*%
X132080000Y-82550000D03*
%TO.P,U1,6*%
%TO.N,Net-(U1-Pad6)*%
X132080000Y-85090000D03*
%TO.P,U1,5*%
%TO.N,Net-(U1-Pad5)*%
X132080000Y-87630000D03*
%TO.P,U1,4*%
%TO.N,GND*%
X132080000Y-90170000D03*
%TO.P,U1,3*%
X132080000Y-92710000D03*
%TO.P,U1,2*%
%TO.N,Net-(U1-Pad2)*%
X132080000Y-95250000D03*
D11*
%TO.P,U1,1*%
%TO.N,Net-(U1-Pad1)*%
X132080000Y-97790000D03*
%TD*%
D12*
%TO.P,SW1,1*%
%TO.N,Net-(SW1-Pad1)*%
X113180000Y-93980000D03*
%TO.P,SW1,2*%
%TO.N,GND*%
X113180000Y-98480000D03*
%TO.P,SW1,1*%
%TO.N,Net-(SW1-Pad1)*%
X106680000Y-93980000D03*
%TO.P,SW1,2*%
%TO.N,GND*%
X106680000Y-98480000D03*
%TD*%
D13*
%TO.P,MX4,2*%
%TO.N,Net-(D4-Pad2)*%
X92710000Y-74930000D03*
%TO.P,MX4,1*%
%TO.N,ROW2*%
X99060000Y-72390000D03*
%TD*%
%TO.P,MX3,2*%
%TO.N,Net-(D2-Pad2)*%
X73660000Y-74930000D03*
%TO.P,MX3,1*%
%TO.N,ROW1*%
X80010000Y-72390000D03*
%TD*%
%TO.P,MX2,2*%
%TO.N,Net-(D3-Pad2)*%
X92710000Y-55880000D03*
%TO.P,MX2,1*%
%TO.N,ROW2*%
X99060000Y-53340000D03*
%TD*%
%TO.P,MX1,2*%
%TO.N,Net-(D1-Pad2)*%
X73660000Y-55880000D03*
%TO.P,MX1,1*%
%TO.N,ROW1*%
X80010000Y-53340000D03*
%TD*%
D14*
%TO.P,D4,2*%
%TO.N,Net-(D4-Pad2)*%
X97790000Y-88900000D03*
D15*
%TO.P,D4,1*%
%TO.N,COL2*%
X97790000Y-96520000D03*
%TD*%
D14*
%TO.P,D3,2*%
%TO.N,Net-(D3-Pad2)*%
X92710000Y-91440000D03*
D15*
%TO.P,D3,1*%
%TO.N,COL1*%
X92710000Y-99060000D03*
%TD*%
D14*
%TO.P,D2,2*%
%TO.N,Net-(D2-Pad2)*%
X78740000Y-88900000D03*
D15*
%TO.P,D2,1*%
%TO.N,COL2*%
X78740000Y-96520000D03*
%TD*%
D14*
%TO.P,D1,2*%
%TO.N,Net-(D1-Pad2)*%
X73660000Y-91440000D03*
D15*
%TO.P,D1,1*%
%TO.N,COL1*%
X73660000Y-99060000D03*
%TD*%
M02*
