M48
; DRILL file {KiCad (5.1.7)-1} date 10/24/20 11:29:57
; FORMAT={-:-/ absolute / inch / decimal}
; #@! TF.CreationDate,2020-10-24T11:29:57-04:00
; #@! TF.GenerationSoftware,Kicad,Pcbnew,(5.1.7)-1
; #@! TF.FileFunction,Plated,1,2,PTH
FMAT,2
INCH
T1C0.0390
T2C0.0430
T3C0.0433
T4C0.0591
%
G90
G05
T1
X3.65Y-3.6
X3.85Y-3.5
X3.85Y-3.8
X2.9Y-3.6
X2.9Y-3.9
X3.1Y-3.5
X3.1Y-3.8
X3.65Y-3.9
T2
X4.6Y-2.75
X4.6Y-2.85
X4.6Y-2.95
X4.6Y-3.05
X4.6Y-3.15
X4.6Y-3.25
X4.6Y-3.35
X4.6Y-3.45
X4.6Y-3.55
X4.6Y-3.65
X4.6Y-3.75
X4.6Y-3.85
X4.7Y-2.75
X4.8Y-2.75
X4.9Y-2.75
X5.0Y-2.75
X5.1Y-2.75
X5.191Y-2.75
X5.2Y-2.85
X5.2Y-2.95
X5.2Y-3.05
X5.2Y-3.15
X5.2Y-3.25
X5.2Y-3.35
X5.2Y-3.45
X5.2Y-3.55
X5.2Y-3.65
X5.2Y-3.75
X5.2Y-3.85
T3
X4.2Y-3.7
X4.2Y-3.8772
X4.4559Y-3.7
X4.4559Y-3.8772
T4
X3.9Y-2.85
X2.9Y-2.95
X3.15Y-2.85
X3.65Y-2.2
X3.9Y-2.1
X2.9Y-2.2
X3.15Y-2.1
X3.65Y-2.95
T0
M30
